<svg id="Camada_1" data-name="Camada 1" xmlns="http://www.w3.org/2000/svg" viewBox="0 0 210 37.32"><defs><style>.cls-1,.cls-2{fill:none;stroke:#403529;stroke-miterlimit:10;}.cls-1{stroke-width:2px;}</style></defs><title>cm_info</title><path class="cls-1" d="M0,32.32H100s1,4,7,4c5,0,6-4,6-4h97"/><path class="cls-2" d="M106,25.32a85.27,85.27,0,0,0-13-5c-7-2-79,6-88,5"/><path class="cls-2" d="M106,25.32a85.27,85.27,0,0,1,13-5c7-2,76,6,85,5"/><path class="cls-2" d="M112,27.32s7-2,10-2,40,2,40,2Z"/><path class="cls-2" d="M99,27.32s-7-2-10-2-40,2-40,2Z"/><path class="cls-1" d="M210,5H113s-1-4-7-4c-5,0-6,4-6,4H0"/><path class="cls-2" d="M106,12a85.27,85.27,0,0,0,13,5c7,2,76-6,85-5"/><path class="cls-2" d="M106,12a85.27,85.27,0,0,1-13,5c-7,2-79-6-88-5"/><path class="cls-2" d="M100,10s-7,2-10,2-40-2-40-2Z"/><path class="cls-2" d="M113,10s7,2,10,2,40-2,40-2Z"/></svg>