<svg id="Camada_1" data-name="Camada 1" xmlns="http://www.w3.org/2000/svg" viewBox="0 0 210 37.32"><defs><style>.cls-1,.cls-2{fill:none;stroke:#511010;stroke-miterlimit:10;}.cls-1{stroke-width:2px;}</style></defs><title>cv_info</title><path class="cls-1" d="M223.5,460.5h100s1,4,7,4c5,0,6-4,6-4h97" transform="translate(-223.5 -428.18)"/><path class="cls-2" d="M329.5,453.5a85,85,0,0,0-13-5c-7-2-79,6-88,5" transform="translate(-223.5 -428.18)"/><path class="cls-2" d="M329.5,453.5a85,85,0,0,1,13-5c7-2,76,6,85,5" transform="translate(-223.5 -428.18)"/><path class="cls-2" d="M335.5,455.5s7-2,10-2,40,2,40,2Z" transform="translate(-223.5 -428.18)"/><path class="cls-2" d="M322.5,455.5s-7-2-10-2-40,2-40,2Z" transform="translate(-223.5 -428.18)"/><path class="cls-1" d="M433.5,433.18h-97s-1-4-7-4c-5,0-6,4-6,4h-100" transform="translate(-223.5 -428.18)"/><path class="cls-2" d="M329.5,440.18a85,85,0,0,0,13,5c7,2,76-6,85-5" transform="translate(-223.5 -428.18)"/><path class="cls-2" d="M329.5,440.18a85,85,0,0,1-13,5c-7,2-79-6-88-5" transform="translate(-223.5 -428.18)"/><path class="cls-2" d="M323.5,438.18s-7,2-10,2-40-2-40-2Z" transform="translate(-223.5 -428.18)"/><path class="cls-2" d="M336.5,438.18s7,2,10,2,40-2,40-2Z" transform="translate(-223.5 -428.18)"/></svg>