<svg id="Camada_1" data-name="Camada 1" xmlns="http://www.w3.org/2000/svg" viewBox="0 0 199.16 47.59"><defs><style>.cls-1,.cls-2{fill:none;stroke:#fff;stroke-miterlimit:10;}.cls-1{stroke-width:2px;}</style></defs><title>icon</title><path class="cls-1" d="M198.9,33.8H112.67S110.62,29,98.3,29C88,29,86,33.8,86,33.8H-.25" transform="translate(0.25 -1.4)"/><path class="cls-2" d="M100.35,42.14a262.5,262.5,0,0,0,26.69,6c14.38,2.38,43.12-7.15,61.6-6" transform="translate(0.25 -1.4)"/><path class="cls-2" d="M100.35,42.14a262.5,262.5,0,0,1-26.69,6c-14.37,2.38-43.12-7.15-61.6-6" transform="translate(0.25 -1.4)"/><path class="cls-2" d="M88,39.76S73.66,42.14,67.5,42.14s-28.74-2.38-28.74-2.38Z" transform="translate(0.25 -1.4)"/><path class="cls-2" d="M114.72,39.76s14.38,2.38,20.54,2.38S164,39.76,164,39.76Z" transform="translate(0.25 -1.4)"/><path class="cls-1" d="M198.9,16.58H112.67s-2,4.77-14.37,4.77C88,21.35,86,16.58,86,16.58H-.25" transform="translate(0.25 -1.4)"/><path class="cls-2" d="M100.35,8.24a259.35,259.35,0,0,1,26.69-6c14.38-2.38,43.12,7.15,61.6,6" transform="translate(0.25 -1.4)"/><path class="cls-2" d="M100.35,8.24a259.35,259.35,0,0,0-26.69-6c-14.37-2.38-43.12,7.15-61.6,6" transform="translate(0.25 -1.4)"/><path class="cls-2" d="M88,10.62S73.66,8.24,67.5,8.24s-28.74,2.38-28.74,2.38Z" transform="translate(0.25 -1.4)"/><path class="cls-2" d="M114.72,10.62s14.38-2.38,20.54-2.38S164,10.62,164,10.62Z" transform="translate(0.25 -1.4)"/></svg>