<svg id="Camada_1" data-name="Camada 1" xmlns="http://www.w3.org/2000/svg" viewBox="0 0 199.16 47.59"><defs><style>.cls-1,.cls-2{fill:none;stroke:#85776e;stroke-miterlimit:10;}.cls-1{stroke-width:2px;}</style></defs><title>icon_pausa</title><path class="cls-1" d="M483.85,393.13H397.62s-2.05-4.76-14.37-4.76c-10.27,0-12.32,4.76-12.32,4.76H284.69" transform="translate(-284.69 -360.73)"/><path class="cls-2" d="M385.3,401.47a259.35,259.35,0,0,0,26.69,6c14.37,2.38,43.12-7.15,61.6-6" transform="translate(-284.69 -360.73)"/><path class="cls-2" d="M385.3,401.47a259.35,259.35,0,0,1-26.69,6c-14.37,2.38-43.12-7.15-61.6-6" transform="translate(-284.69 -360.73)"/><path class="cls-2" d="M373,399.09s-14.37,2.38-20.53,2.38-28.75-2.38-28.75-2.38Z" transform="translate(-284.69 -360.73)"/><path class="cls-2" d="M399.67,399.09s14.37,2.38,20.53,2.38S449,399.09,449,399.09Z" transform="translate(-284.69 -360.73)"/><path class="cls-1" d="M483.85,375.91H397.62s-2.05,4.77-14.37,4.77c-10.27,0-12.32-4.77-12.32-4.77H284.69" transform="translate(-284.69 -360.73)"/><path class="cls-2" d="M385.3,367.57a262.5,262.5,0,0,1,26.69-6c14.37-2.38,43.12,7.15,61.6,6" transform="translate(-284.69 -360.73)"/><path class="cls-2" d="M385.3,367.57a262.5,262.5,0,0,0-26.69-6c-14.37-2.38-43.12,7.15-61.6,6" transform="translate(-284.69 -360.73)"/><path class="cls-2" d="M373,370s-14.37-2.39-20.53-2.39S323.7,370,323.7,370Z" transform="translate(-284.69 -360.73)"/><path class="cls-2" d="M399.67,370s14.37-2.39,20.53-2.39S449,370,449,370Z" transform="translate(-284.69 -360.73)"/></svg>