<?xml version="1.0" encoding="utf-8"?>
<!-- Generator: Adobe Illustrator 22.0.1, SVG Export Plug-In . SVG Version: 6.00 Build 0)  -->
<svg version="1.1" id="Camada_1" xmlns="http://www.w3.org/2000/svg" xmlns:xlink="http://www.w3.org/1999/xlink" x="0px" y="0px"
	 viewBox="0 0 210 37.3" style="enable-background:new 0 0 210 37.3;" xml:space="preserve">
<style type="text/css">
	.st0{fill:none;stroke:#FFFFFF;stroke-width:2;stroke-miterlimit:10;}
	.st1{fill:none;stroke:#FFFFFF;stroke-miterlimit:10;}
</style>
<title>mf_info</title>
<path class="st0" d="M0,32.3h100c0,0,1,4,7,4c5,0,6-4,6-4h97"/>
<path class="st1" d="M106,25.3c-4.2-2-8.5-3.7-13-5c-7-2-79,6-88,5"/>
<path class="st1" d="M106,25.3c4.2-2,8.5-3.7,13-5c7-2,76,6,85,5"/>
<path class="st1" d="M112,27.3c0,0,7-2,10-2s40,2,40,2H112z"/>
<path class="st1" d="M99,27.3c0,0-7-2-10-2s-40,2-40,2H99z"/>
<path class="st0" d="M210,5h-97c0,0-1-4-7-4c-5,0-6,4-6,4H0"/>
<path class="st1" d="M106,12c4.2,2,8.5,3.7,13,5c7,2,76-6,85-5"/>
<path class="st1" d="M106,12c-4.2,2-8.5,3.7-13,5c-7,2-79-6-88-5"/>
<path class="st1" d="M100,10c0,0-7,2-10,2s-40-2-40-2H100z"/>
<path class="st1" d="M113,10c0,0,7,2,10,2s40-2,40-2H113z"/>
</svg>
